<?xml version="1.0" encoding="utf-8"?>
<!-- Generator: Adobe Illustrator 27.8.1, SVG Export Plug-In . SVG Version: 6.00 Build 0)  -->
<svg version="1.1" id="圖層_1" xmlns="http://www.w3.org/2000/svg" xmlns:xlink="http://www.w3.org/1999/xlink" x="0px" y="0px"
	 viewBox="0 0 472 369.6" style="enable-background:new 0 0 472 369.6;" xml:space="preserve">
<style type="text/css">
	.st0{fill:#00FFC7;}
	.st1{fill:none;}
</style>
<path class="st0" d="M287.5,284.2L250,321.7V140.3c0-7.7-6.3-14-14-14c-7.7,0-14,6.3-14,14v181.4l-37.5-37.5
	c-5.5-5.5-14.4-5.5-19.8,0c-5.5,5.5-5.5,14.4,0,19.8l61.5,61.5c0,0,0,0,0,0c0.3,0.3,0.6,0.6,1,0.9c0.2,0.1,0.3,0.3,0.5,0.4
	c0.2,0.1,0.4,0.3,0.6,0.4c0.2,0.1,0.4,0.3,0.6,0.4c0.2,0.1,0.4,0.2,0.6,0.3c0.2,0.1,0.4,0.2,0.6,0.3c0.2,0.1,0.4,0.2,0.6,0.3
	c0.2,0.1,0.4,0.2,0.6,0.2c0.2,0.1,0.4,0.2,0.7,0.2c0.2,0.1,0.4,0.1,0.6,0.2c0.2,0.1,0.5,0.1,0.7,0.2c0.2,0,0.5,0.1,0.7,0.1
	c0.2,0,0.4,0.1,0.6,0.1c0.5,0,0.9,0.1,1.4,0.1c0.5,0,0.9,0,1.4-0.1c0.2,0,0.4-0.1,0.6-0.1c0.2,0,0.5-0.1,0.7-0.1
	c0.2,0,0.5-0.1,0.7-0.2c0.2-0.1,0.4-0.1,0.6-0.2c0.2-0.1,0.4-0.2,0.7-0.2c0.2-0.1,0.4-0.1,0.6-0.2c0.2-0.1,0.4-0.2,0.6-0.3
	c0.2-0.1,0.4-0.2,0.6-0.3c0.2-0.1,0.4-0.2,0.6-0.3c0.2-0.1,0.4-0.2,0.6-0.4c0.2-0.1,0.4-0.3,0.6-0.4c0.2-0.1,0.3-0.2,0.5-0.4
	c0.3-0.3,0.7-0.6,1-0.9c0,0,0,0,0,0l61.5-61.5c5.5-5.5,5.5-14.4,0-19.8C301.9,278.7,293,278.7,287.5,284.2"/>
<path class="st0" d="M382.6,95.1c-1.4,0-2.8,0-4.1,0.1C364.4,40,310.5,0,247.5,0c-28,0-54.9,7.8-77.7,22.6
	c-18.8,12.2-33.6,28.3-43.5,47C98,63.3,68.8,69.1,44.6,86.2c-13.4,9.4-24.5,22-32.2,36.4C4.2,137.9,0,154.6,0,172.2
	c0,26,6.8,50.2,19.1,68c15.8,22.9,40,35,70,35h33c7.7,0,14-6.3,14-14c0-7.7-6.3-14-14-14h-33c-20.6,0-36.4-7.7-46.9-22.9
	C33.1,211.1,28,192.6,28,172.2c0-25.5,11.9-48.5,32.7-63.1C81,94.8,106,91.3,129.3,99.6c7.1,2.5,15-1,17.7-8
	c15.1-38,55.4-63.6,100.4-63.6c54.1,0,99.6,36.2,105.8,84.3c0.5,3.8,2.6,7.3,5.7,9.6c3.2,2.3,7.1,3.1,10.9,2.4
	c4-0.8,8.2-1.2,12.5-1.2c33.9,0.3,61.5,28.5,61.5,63c0,33.7-27.4,61.1-61,61.1h-33c-7.7,0-14,6.3-14,14c0,7.7,6.3,14,14,14h33
	c49.1,0,89.1-40,89.1-89.1C472,136.3,431.9,95.4,382.6,95.1"/>
<rect class="st1" width="472" height="369.6"/>
</svg>
