<?xml version="1.0" encoding="utf-8"?>
<!-- Generator: Adobe Illustrator 28.0.0, SVG Export Plug-In . SVG Version: 6.00 Build 0)  -->
<svg version="1.1" id="圖層_1" xmlns="http://www.w3.org/2000/svg" xmlns:xlink="http://www.w3.org/1999/xlink" x="0px" y="0px"
	 viewBox="0 0 33.3 20.9" style="enable-background:new 0 0 33.3 20.9;" xml:space="preserve">
<style type="text/css">
	.st0{fill:#F42525;}
	.st1{fill:#FFFFFF;}
</style>
<g>
	<g>
		<rect x="0" y="0" class="st0" width="33.3" height="20.9"/>
	</g>
	<g>
		<g>
			<polygon class="st1" points="6.9,5.9 7.8,8.5 5.6,6.9 5.6,6.8 5.6,6.9 3.4,8.5 4.3,5.9 4.4,5.9 4.3,5.9 2.1,4.4 4.8,4.4 5.5,1.8 
				6.4,4.4 6.4,4.4 6.4,4.4 9.1,4.4 6.8,5.9 6.8,5.9 			"/>
		</g>
	</g>
	<g>
		<g>
			<g>
				<polygon class="st1" points="12.8,8.5 13,8 13.1,8.5 13,9 				"/>
			</g>
			<g>
				<polygon class="st1" points="13.1,8.5 13.7,8.5 13.2,8.8 12.7,8.8 				"/>
			</g>
			<g>
				<polygon class="st1" points="13.2,8.8 13.4,9.3 13,9 12.8,8.5 				"/>
			</g>
			<g>
				<polygon class="st1" points="12.8,8.5 12.3,8.5 12.7,8.8 13.2,8.8 				"/>
			</g>
			<g>
				<polygon class="st1" points="12.7,8.8 12.5,9.3 13,9 13.1,8.5 				"/>
			</g>
		</g>
		<g>
			<g>
				<polygon class="st1" points="10.3,11.1 10.6,10.7 10.6,11.2 10.3,11.6 				"/>
			</g>
			<g>
				<polygon class="st1" points="10.6,11.2 11.2,11.4 10.6,11.5 10.1,11.4 				"/>
			</g>
			<g>
				<polygon class="st1" points="10.6,11.5 10.7,12.1 10.3,11.7 10.3,11.1 				"/>
			</g>
			<g>
				<polygon class="st1" points="10.3,11.1 9.8,11 10.1,11.4 10.6,11.5 				"/>
			</g>
			<g>
				<polygon class="st1" points="10.1,11.4 9.8,11.9 10.3,11.7 10.6,11.2 				"/>
			</g>
		</g>
		<g>
			<g>
				<polygon class="st1" points="13.5,5.3 13.9,4.9 13.7,5.4 13.3,5.8 				"/>
			</g>
			<g>
				<polygon class="st1" points="13.7,5.4 14.2,5.7 13.7,5.7 13.2,5.5 				"/>
			</g>
			<g>
				<polygon class="st1" points="13.7,5.8 13.5,6.3 13.3,5.8 13.5,5.3 				"/>
			</g>
			<g>
				<polygon class="st1" points="13.5,5.3 13,5 13.2,5.5 13.7,5.7 				"/>
			</g>
			<g>
				<polygon class="st1" points="13.2,5.5 12.8,5.8 13.3,5.8 13.7,5.5 				"/>
			</g>
		</g>
		<g>
			<g>
				<polygon class="st1" points="11.9,2.2 12.2,1.8 12.2,2.3 11.9,2.7 				"/>
			</g>
			<g>
				<polygon class="st1" points="12.2,2.3 12.7,2.5 12.2,2.6 11.7,2.5 				"/>
			</g>
			<g>
				<polygon class="st1" points="12.2,2.6 12.2,3.2 11.9,2.7 11.9,2.2 				"/>
			</g>
			<g>
				<polygon class="st1" points="11.9,2.2 11.4,2.1 11.7,2.5 12.2,2.6 				"/>
			</g>
			<g>
				<polygon class="st1" points="11.7,2.5 11.4,2.9 11.9,2.7 12.2,2.3 				"/>
			</g>
		</g>
	</g>
</g>
</svg>
