<?xml version="1.0" encoding="utf-8"?>
<!-- Generator: Adobe Illustrator 27.8.1, SVG Export Plug-In . SVG Version: 6.00 Build 0)  -->
<svg version="1.1" id="圖層_1" xmlns="http://www.w3.org/2000/svg" xmlns:xlink="http://www.w3.org/1999/xlink" x="0px" y="0px"
	 viewBox="0 0 33.3 20.9" style="enable-background:new 0 0 33.3 20.9;" xml:space="preserve">
<style type="text/css">
	.st0{fill:#2E4593;}
	.st1{fill:#FCF5FF;}
	.st2{fill:#F42525;}
	.st3{fill:#FFFFFF;}
	.st4{fill:#CD002A;}
</style>
<polygon class="st0" points="0,0 0,20.9 33.3,20.9 33.3,20.9 33.3,0 "/>
<polygon class="st1" points="0,0 0,2.2 8.3,7.4 9.9,8.4 13.5,10.7 13.9,10.9 14.1,11.1 14.9,11.6 15.3,11.8 15.8,12.1 17,12.9 
	17.4,13.1 18.6,13.9 19.6,14.5 29.8,20.9 33.3,20.9 33.3,20.9 33.3,18.7 24.3,13.1 22.7,12.1 20.5,10.7 19.6,10.2 18.8,9.6 
	18.6,9.5 17.6,8.9 17,8.5 16.8,8.4 15.2,7.4 14.9,7.2 13.9,6.6 3.5,0 0.1,0 0.1,0 "/>
<polygon class="st2" points="0,0 0,1.4 9.5,7.4 11.1,8.4 13.9,10.1 14.1,10.3 14.8,10.7 14.9,10.8 15.9,11.4 17,12.1 17.6,12.5 
	18.6,13.1 18.6,13.1 19.6,13.7 31.1,20.9 33.3,20.9 33.3,20.8 20.9,13.1 19.6,12.3 19.3,12.1 18.8,11.7 18.6,11.6 17.1,10.7 
	15.9,10 15.3,9.6 14.9,9.3 13.9,8.7 13.5,8.4 11.8,7.4 0.1,0 0.1,0 "/>
<polygon class="st1" points="30.5,0 19.6,6.9 18.8,7.4 18.6,7.5 17.2,8.4 17,8.5 15.3,9.6 14.9,9.8 14.1,10.3 13.9,10.4 13.5,10.7 
	11.3,12.1 9.7,13.1 0,19.1 0,20.9 4.1,20.9 13.9,14.8 14.9,14.1 16.6,13.1 17,12.9 17.6,12.5 18.2,12.1 18.6,11.8 18.8,11.7 
	19.6,11.2 20.5,10.7 24.1,8.4 25.7,7.4 33.3,2.6 33.3,0.5 33,0 "/>
<polygon class="st2" points="32.9,0 31.7,0 20,7.4 19.6,7.6 18.6,8.3 18.4,8.4 17.6,8.9 15.9,10 14.9,10.6 14.8,10.7 14.1,11.1 
	13.9,11.2 12.5,12.1 10.9,13.1 0,19.9 0,20.9 0.8,20.9 13.2,13.1 13.9,12.7 14.8,12.1 14.9,12 15.3,11.8 15.9,11.4 17.1,10.7 
	18.6,9.7 18.8,9.6 19.6,9.1 20.7,8.4 22.3,7.4 33.2,0.6 33.3,0.5 33.3,0 "/>
<rect y="7.4" class="st3" width="33.3" height="5.7"/>
<rect y="8.4" class="st2" width="33.3" height="3.7"/>
<rect x="14.9" y="0" class="st4" width="3.7" height="20.9"/>
<polygon class="st3" points="13.9,0 13.9,7.4 14.9,7.4 14.9,13.1 13.9,13.1 13.9,20.9 19.6,20.9 19.6,13.1 18.6,13.1 18.6,7.4 
	19.6,7.4 19.6,0 "/>
<rect x="14.9" y="0" class="st2" width="3.7" height="20.9"/>
</svg>
