<?xml version="1.0" encoding="utf-8"?>
<!-- Generator: Adobe Illustrator 28.0.0, SVG Export Plug-In . SVG Version: 6.00 Build 0)  -->
<svg version="1.1" id="圖層_1" xmlns="http://www.w3.org/2000/svg" xmlns:xlink="http://www.w3.org/1999/xlink" x="0px" y="0px"
	 viewBox="0 0 33.3 20.9" style="enable-background:new 0 0 33.3 20.9;" xml:space="preserve">
<style type="text/css">
	.st0{fill:#FFFFFF;}
	.st1{fill:#28292B;}
	.st2{fill:#2E4593;}
	.st3{fill:#DB2E2E;}
</style>
<g>
	<g>
		<g>
			<rect x="0" y="0" class="st0" width="33.2" height="20.9"/>
		</g>
	</g>
	<g>
		<g>
			<g>
				<g>
					<rect x="4.1" y="3" transform="matrix(0.705 -0.7092 0.7092 0.705 -0.5519 5.6804)" class="st1" width="4.9" height="1.1"/>
				</g>
			</g>
			<g>
				<g>
					
						<rect x="5.2" y="4.1" transform="matrix(0.7049 -0.7093 0.7093 0.7049 -1.0277 6.8111)" class="st1" width="4.9" height="1.1"/>
				</g>
			</g>
			<g>
				<g>
					
						<rect x="6.3" y="5.2" transform="matrix(0.7049 -0.7093 0.7093 0.7049 -1.4803 7.9013)" class="st1" width="4.9" height="1.1"/>
				</g>
			</g>
		</g>
		<g>
			<g>
				<g>
					
						<rect x="24.4" y="13.8" transform="matrix(0.7046 -0.7096 0.7096 0.7046 -2.688 22.2637)" class="st1" width="1.9" height="1.1"/>
				</g>
				<g>
					
						<rect x="22.3" y="15.9" transform="matrix(0.7044 -0.7098 0.7098 0.7044 -4.8324 21.3916)" class="st1" width="1.9" height="1.1"/>
				</g>
			</g>
			<g>
				<g>
					
						<rect x="25.6" y="14.9" transform="matrix(0.7046 -0.7097 0.7097 0.7046 -3.1587 23.3964)" class="st1" width="1.9" height="1.1"/>
				</g>
				<g>
					
						<rect x="23.4" y="17.1" transform="matrix(0.7049 -0.7093 0.7093 0.7049 -5.3055 22.5057)" class="st1" width="1.9" height="1.1"/>
				</g>
			</g>
			<g>
				<g>
					
						<rect x="26.6" y="16" transform="matrix(0.7069 -0.7073 0.7073 0.7069 -3.6344 24.3859)" class="st1" width="1.9" height="1.1"/>
				</g>
				<g>
					
						<rect x="24.5" y="18.2" transform="matrix(0.7051 -0.7091 0.7091 0.7051 -5.758 23.5893)" class="st1" width="1.9" height="1.1"/>
				</g>
			</g>
		</g>
		<g>
			<g>
				<g>
					
						<rect x="27.2" y="3.5" transform="matrix(0.7046 -0.7096 0.7096 0.7046 5.0455 20.9736)" class="st1" width="1.1" height="1.9"/>
				</g>
				<g>
					<rect x="25" y="1.4" transform="matrix(0.7053 -0.7089 0.7089 0.7053 5.9063 18.8072)" class="st1" width="1.1" height="1.9"/>
				</g>
			</g>
			<g>
				<g>
					<polygon class="st1" points="23.4,3.1 24.2,2.4 25.5,3.7 26.3,4.5 27.6,5.8 26.9,6.6 25.5,5.3 24.7,4.5 					"/>
				</g>
			</g>
			<g>
				<g>
					
						<rect x="24.9" y="5.7" transform="matrix(0.7075 -0.7067 0.7067 0.7075 2.7663 19.9585)" class="st1" width="1.1" height="1.9"/>
				</g>
				<g>
					
						<rect x="22.8" y="3.6" transform="matrix(0.7046 -0.7096 0.7096 0.7046 3.6957 17.9053)" class="st1" width="1.1" height="1.9"/>
				</g>
			</g>
		</g>
		<g>
			<g>
				<g>
					<polygon class="st1" points="6.7,14 7.4,13.2 8.8,14.6 9.6,15.3 10.9,16.7 10.2,17.5 8.8,16.1 8,15.3 					"/>
				</g>
			</g>
			<g>
				<g>
					
						<rect x="8.2" y="16.6" transform="matrix(0.7046 -0.7097 0.7097 0.7046 -9.865 11.384)" class="st1" width="1.1" height="1.9"/>
				</g>
				<g>
					
						<rect x="6.1" y="14.5" transform="matrix(0.7047 -0.7095 0.7095 0.7047 -8.9861 9.2365)" class="st1" width="1.1" height="1.9"/>
				</g>
			</g>
			<g>
				<g>
					<polygon class="st1" points="4.4,16.2 5.2,15.4 6.6,16.8 7.4,17.6 8.7,18.9 7.9,19.7 6.6,18.3 5.8,17.6 					"/>
				</g>
			</g>
		</g>
	</g>
	<g>
		<g>
			<path class="st2" d="M22.6,10.3c0,3.3-2.6,5.9-5.9,5.9c-3.3,0-5.9-2.6-5.9-5.9c0-3.3,2.6-5.9,5.9-5.9C20,4.4,22.6,7,22.6,10.3z"
				/>
		</g>
		<g>
			<path class="st3" d="M22.6,10.3c0,0.3,0,0.6-0.1,0.8c-0.2-1.2-0.8-3.3-3.2-3.3c-1.8,0-2.4,0.8-2.8,1.7c-0.5,1.3-0.6,3-3,3
				c-1.7,0-2.5-1-2.8-2.1c0,0,0-0.1,0-0.1c0-1,0.2-1.9,0.7-2.8c1-1.9,3-3.1,5.2-3.1C20,4.4,22.6,7,22.6,10.3z"/>
		</g>
	</g>
</g>
</svg>
