<?xml version="1.0" encoding="utf-8"?>
<!-- Generator: Adobe Illustrator 27.8.1, SVG Export Plug-In . SVG Version: 6.00 Build 0)  -->
<svg version="1.1" id="圖層_1" xmlns="http://www.w3.org/2000/svg" xmlns:xlink="http://www.w3.org/1999/xlink" x="0px" y="0px"
	 viewBox="0 0 180 51" style="enable-background:new 0 0 180 51;" xml:space="preserve">
<style type="text/css">
	.st0{fill:url(#SVGID_1_);}
	.st1{fill:url(#SVGID_00000115498661072796823990000000023874880995466387_);}
	.st2{fill:url(#SVGID_00000026155395980217238450000015668883624669664416_);}
	.st3{fill:url(#SVGID_00000091732601024778888990000009479501128652981919_);}
</style>
<g>
	<linearGradient id="SVGID_1_" gradientUnits="userSpaceOnUse" x1="2.2475" y1="11.8271" x2="138.9259" y2="87.1189">
		<stop  offset="0" style="stop-color:#91F378"/>
		<stop  offset="1" style="stop-color:#0AE2A9"/>
	</linearGradient>
	<path class="st0" d="M49.9,15.7L49.9,15.7c1.3,3,1.9,6.3,1.9,9.8v0.6c-0.1,3.3-0.7,6.4-1.9,9.2c-1.2,2.8-3,5.3-5.3,7.7
		c-4.8,4.8-10.6,7.3-17.5,7.3S14.4,47.8,9.6,43l-0.3-0.4l-0.4-0.4c-0.3-0.4-0.4-0.9-0.4-1.4c0-0.7,0.2-1.3,0.7-1.7
		c0.5-0.5,1.1-0.7,1.7-0.7c0.4,0,0.8,0.1,1.1,0.3l0.9,1l0.2,0.1c3.9,3.8,8.5,5.7,14,5.7c5.5,0,10.2-2,14.1-5.9
		c1.4-1.4,2.5-2.9,3.4-4.5c1.5-2.7,2.4-5.7,2.5-9.1v-0.6c0-5.5-2-10.3-5.9-14.2c-3.5-3.5-7.8-5.5-12.6-5.8l-1.5,0
		c-4,0-7.6,1.1-10.8,3.1c-1.2,0.8-2.3,1.7-3.4,2.8l-1,1.1c-0.4,0.2-0.7,0.3-1.2,0.3c-0.7,0-1.3-0.3-1.8-0.7c-0.5-0.5-0.7-1-0.7-1.7
		c0-0.5,0.1-1,0.4-1.4l0.6-0.7L9.5,8c2.1-2,4.3-3.6,6.7-4.8c3.3-1.6,6.9-2.5,10.8-2.5l1.5,0C34.7,1.1,40,3.5,44.5,8
		C46.9,10.3,48.6,12.9,49.9,15.7L49.9,15.7z M29,19.8L29,19.8c2.6,0,4.9,1,6.8,2.9c0.5,0.5,1,1.1,1.4,1.8c0.3,0.5,0.6,1.1,0.8,1.7
		c0.4,1.1,0.6,2.3,0.6,3.6c0,2-0.5,3.7-1.4,5.3l-0.1,0l-0.6,0.8l-0.7,0.8c-1.9,1.9-4.2,3-6.9,3.1l-6.8-0.2l0.4,0
		c-0.7,0-1.2-0.3-1.7-0.7c-0.5-0.4-0.7-1-0.7-1.6c0-0.7,0.2-1.2,0.7-1.7l0.3-0.2c0.4-0.3,0.8-0.4,1.4-0.4l7.7-0.3
		c0.6-0.3,1.2-0.7,1.7-1.2c1.1-1,1.5-2.2,1.5-3.7c0-1.4-0.4-2.6-1.4-3.6l-0.2-0.2c-0.7-0.7-1.5-1.3-2.5-1.4c-2.3-0.1-4.6-0.1-7,0
		h-0.2c-0.4,0-0.7-0.2-1.1-0.4l-0.4-0.3c-0.4-0.4-0.7-0.9-0.7-1.4v-0.3V13c0-0.7,0.2-1.2,0.6-1.7c0.5-0.4,1.1-0.7,1.7-0.7
		c0.6,0,1.1,0.2,1.6,0.7c0.5,0.5,0.7,1,0.7,1.7v7.9C26.1,20.2,27.5,19.8,29,19.8L29,19.8z M24,27.3L24,27.3c0.7,0,1.2,0.2,1.7,0.7
		c0.5,0.5,0.7,1.1,0.7,1.7s-0.3,1.2-0.7,1.7c-0.4,0.5-1,0.7-1.7,0.7h-0.3c-0.5-0.1-1-0.3-1.4-0.7c-0.5-0.5-0.7-1-0.7-1.7
		c0-0.7,0.2-1.2,0.7-1.7c0.4-0.4,0.9-0.6,1.4-0.7L24,27.3L24,27.3z"/>
	<g>
		
			<linearGradient id="SVGID_00000067917056374789119020000008916771156620186255_" gradientUnits="userSpaceOnUse" x1="10.9481" y1="-9.7276" x2="156.6745" y2="70.5485">
			<stop  offset="0" style="stop-color:#91F378"/>
			<stop  offset="1" style="stop-color:#0AE2A9"/>
		</linearGradient>
		<path style="fill:url(#SVGID_00000067917056374789119020000008916771156620186255_);" d="M95.1,33.4c0,3.7-1.2,6.6-3.6,8.5
			c-2.2,1.7-5.2,2.6-9.1,2.6H66.9c-4.1,0-6.1-1.8-6.1-5.3v-27c0-1.6,0.6-2.9,1.8-3.8c1-0.8,2.4-1.2,4.1-1.2h15.2
			c7.8,0,11.7,3,11.7,8.9c0,2.1-0.4,3.8-1.3,5.1c-0.9,1.3-2.2,2.5-4.1,3.5c2,0.2,3.7,1.2,5.1,3C94.5,29.4,95.1,31.4,95.1,33.4z
			 M86.5,17.8c0-2.8-1.5-4.2-4.6-4.2H71.7c-2.6,0-3.9,1.2-3.9,3.7v4.9H82c1.4,0,2.5-0.4,3.3-1.2C86.1,20.3,86.5,19.2,86.5,17.8z
			 M88.3,33.2c0-3.1-1.9-4.7-5.8-4.7H67.8v6.1c0,2.4,1.3,3.6,3.8,3.6h11c1.7,0,3.1-0.4,4.1-1.2C87.7,36.1,88.3,34.8,88.3,33.2z"/>
		
			<linearGradient id="SVGID_00000015318878042392364370000001252223299372421003_" gradientUnits="userSpaceOnUse" x1="26.0961" y1="-23.7673" x2="164.3977" y2="52.4188">
			<stop  offset="0" style="stop-color:#91F378"/>
			<stop  offset="1" style="stop-color:#0AE2A9"/>
		</linearGradient>
		<path style="fill:url(#SVGID_00000015318878042392364370000001252223299372421003_);" d="M132,41c0,2.3-1,3.5-2.9,3.5
			c-1.3,0-2.4-0.6-3.4-1.8l-18.6-23.9v22.3c0,2.2-1.2,3.4-3.5,3.4c-2.1,0-3.1-1.1-3.1-3.4V10.6c0-2.2,1-3.4,3.1-3.4
			c1.4,0,2.6,0.6,3.5,1.7l18.2,23.5V10.6c0-2.2,1-3.4,3.1-3.4c2.3,0,3.5,1.1,3.5,3.4V41z"/>
		
			<linearGradient id="SVGID_00000019640576091855872620000006561893427686503062_" gradientUnits="userSpaceOnUse" x1="34.842" y1="-40.3332" x2="175.7881" y2="37.3095">
			<stop  offset="0" style="stop-color:#91F378"/>
			<stop  offset="1" style="stop-color:#0AE2A9"/>
		</linearGradient>
		<path style="fill:url(#SVGID_00000019640576091855872620000006561893427686503062_);" d="M171.8,40.5c0,2.9-1.2,4.3-3.5,4.3
			c-2.2,0-3.3-1.5-3.2-4.4c-2.6,2.8-6.6,4.4-11.3,4.4c-5.3,0-9-2-12-5.6c-2.8-3.4-4.2-7.8-4.2-13.1c0-5.7,1.5-10.3,4.5-13.7
			c3.1-3.6,7.5-5.5,13.1-5.5c5.9,0,10.9,2.2,14,5.5c1.7,1.8,2.6,3.4,2.6,4.9c0,0.8-0.3,1.5-0.8,2.1c-0.5,0.6-1.1,0.9-1.9,0.9
			c-1.4,0-2.6-0.6-3.5-1.7c-2.6-3.3-6.5-5.6-10.8-5.6c-3.2,0-5.8,1.4-7.8,4.2c-1.8,2.5-2.7,5.4-2.7,8.7c0,3.7,0.8,6.7,2.5,9
			c1.9,2.6,4.7,3.9,8.2,3.9c4.9,0,8.2-2.5,10.1-7.6h-6.5c-1.9,0-2.9-1-2.9-3c0-2,1-3,2.9-3h9c2.8,0,4.3,1.3,4.3,3.9V40.5z"/>
	</g>
</g>
</svg>
