<?xml version="1.0" encoding="utf-8"?>
<!-- Generator: Adobe Illustrator 27.8.1, SVG Export Plug-In . SVG Version: 6.00 Build 0)  -->
<svg version="1.1" id="圖層_1" xmlns="http://www.w3.org/2000/svg" xmlns:xlink="http://www.w3.org/1999/xlink" x="0px" y="0px"
	 viewBox="0 0 1422.2 1413.6" style="enable-background:new 0 0 1422.2 1413.6;" xml:space="preserve">
<style type="text/css">
	.st0{fill:none;}
	.st1{fill:#7A7A7A;}
</style>
<rect class="st0" width="1422.2" height="1413.6"/>
<path class="st1" d="M694.8,0h34.5c1.6,0.2,3.1,0.6,4.7,0.7c7.2,0.4,14.4,0.7,21.6,1.1c16.8,0.9,33.5,2.6,50.1,4.8
	c20.3,2.6,40.4,6.2,60.4,10.6c57.4,12.7,112.4,32.2,164.9,58.6c72.5,36.5,136.9,84.1,193.2,142.6c52.5,54.6,95.3,116,128.3,184.2
	c31.9,66.2,53.1,135.6,63.3,208.3c3.1,22.3,5.7,44.7,5.8,67.3c0,1.7,0.5,3.5,0.7,5.2v55.7c-0.2,1.9-0.6,3.8-0.7,5.7
	c-0.2,6.1-0.1,12.2-0.5,18.2c-0.9,11.5-2.1,22.9-3.4,34.4c-2.2,20.5-5.7,40.8-10,61c-12.6,59.6-32.4,116.6-59.8,171.1
	c-36.3,72.3-83.4,136.6-141.6,192.8c-76.9,74.3-165.9,128.7-267.2,163c-32.3,10.9-65.2,19.3-98.8,25.5c-5.5,1-11,1.8-16.5,2.8
	c-0.3-0.7-0.6-1.1-0.6-1.5c0-164.3-0.1-328.6-0.1-492.9c0-0.6,0.2-1.2,0.4-1.9c1.9-0.8,3.9-0.4,5.7-0.4c36.5,0,72.9,0,109.4,0
	c14.9,0,29.7,0,44.6,0c1.7,0,3.5,0.4,5.1-0.4c0.2-0.6,0.5-1,0.6-1.4c10.3-67.5,20.6-134.9,30.9-202.4c0-0.1,0-0.3-0.1-0.5
	c-0.1-0.1-0.2-0.2-0.5-0.7c-1.6,0-3.5-0.1-5.4-0.1c-61.1,0-122.2,0-183.3,0c-1.4,0-2.9,0-4.3,0c-0.9,0-1.8-0.2-3.1-0.4
	c0-2.1-0.1-4-0.1-5.9c0-41.3,0-82.5,0-123.8c0-4,0.1-8,0.2-12c0.5-11.6,2.4-22.9,5.9-33.9c9.7-30,29.5-50.3,59.3-60.7
	c12-4.2,24.4-6.4,37.1-7.1c6.2-0.4,12.5-0.4,18.7-0.5c25.7,0,51.5,0,77.2,0c1.4,0,2.9,0,4.3,0c0.8,0,1.5-0.3,2.2-0.5
	c0.6-4.8,1-150.3,0.4-171.4c0-0.9-0.2-1.9-0.4-3.1c-2.1-0.4-4.1-0.8-6.2-1.1c-3.5-0.6-6.9-1.1-10.4-1.6c-10.6-1.4-21.2-2.9-31.9-4.1
	c-10.8-1.2-21.6-2.3-32.4-3.3c-10.5-0.9-21-1.9-31.6-2.4c-13.3-0.7-26.5-1-39.8-1.3c-22.4-0.5-44.7,1-66.9,4.8
	c-21.8,3.7-43,9.7-63.4,18.4c-36.4,15.7-67.1,38.9-91.1,70.6c-18,23.7-30.7,50.1-39.4,78.4c-9.8,32.2-14.2,65.3-14.3,98.9
	c-0.2,51.5-0.1,103-0.1,154.5c0,1.4,0,2.9,0,4.3c0,0.9-0.2,1.8-0.4,3c-2.1,0-4,0.1-5.9,0.1c-55.7,0-111.3,0-167,0
	c-1.4,0-2.9-0.1-4.3,0c-0.9,0.1-1.8,0.3-2.7,0.5c-0.1,0.9-0.2,1.5-0.2,2.1c0,67.2,0.1,134.4,0.1,201.5c0,0.2,0,0.3,0.1,0.5
	c0.1,0.1,0.2,0.2,0.6,0.6c1.6,0.5,3.5,0.2,5.4,0.2c55.7,0,111.3,0,167,0c1.4,0,2.9-0.1,4.3,0c0.9,0,1.8,0.3,3,0.5c0,2.2,0,4.3,0,6.4
	c0,161.1,0,322.2,0,483.3c0,1.3,0.1,2.6,0,3.8c-0.1,0.9-0.3,1.7-0.5,2.8c-6-1-11.7-1.9-17.3-2.9c-34.5-6.4-68.3-15.1-101.5-26.6
	c-108.1-37.3-201.8-97.2-281.3-179.3c-51.9-53.6-94.2-114.1-127.1-181.1C54,984.6,38.6,944.1,26.9,902c-6.9-25-12.5-50.2-16.6-75.8
	c-2.6-16.3-4.8-32.6-6.2-49c-1.1-12.3-1.6-24.6-2.3-36.9c-0.2-4.3-0.5-8.6-1.8-12.8v-32.6c1.1-3.7,1.6-7.5,1.7-11.3
	c0.4-14.4,1.5-28.7,2.9-43.1c1.7-17.7,4.1-35.2,7.2-52.7c6-34.1,14.3-67.5,25.3-100.3C73.9,377.3,134,281.6,217.3,200.8
	c83.6-81.1,181.4-138.2,293-171.5c27-8,54.3-14.4,82.1-18.9c11.5-1.9,23.1-3.6,34.6-5C639.1,4,651.2,3,663.3,2
	c9.2-0.7,18.5-0.9,27.8-1.4C692.3,0.5,693.6,0.2,694.8,0"/>
</svg>
