<?xml version="1.0" encoding="utf-8"?>
<!-- Generator: Adobe Illustrator 27.8.1, SVG Export Plug-In . SVG Version: 6.00 Build 0)  -->
<svg version="1.1" id="圖層_1" xmlns="http://www.w3.org/2000/svg" xmlns:xlink="http://www.w3.org/1999/xlink" x="0px" y="0px"
	 viewBox="0 0 1422.5 1422.5" style="enable-background:new 0 0 1422.5 1422.5;" xml:space="preserve">
<style type="text/css">
	.st0{fill:none;}
	.st1{fill:#7A7A7A;}
</style>
<rect class="st0" width="1422.5" height="1422.5"/>
<path class="st1" d="M735.2,1422.5h-46.1c-1.4-1.1-3.1-0.6-4.6-0.7c-10.7-0.7-21.4-1.2-32.1-2c-15.3-1-30.6-2.9-45.7-5.2
	c-24.8-3.7-49.4-8.7-73.7-15c-77.3-20.1-149.1-52.4-215.5-96.7C254.8,1261,200,1210.3,153.4,1151c-55.7-70.8-96.6-149.3-122.5-235.6
	c-8.3-27.6-14.8-55.6-19.6-84c-3.1-18.3-5.6-36.7-7.2-55.1C3,763.2,2.5,750.1,1.7,737c-0.3-4.8-0.7-9.5-1.7-14.2c0-7.7,0-15.4,0-23
	c0.6-4.4,1.3-8.8,1.6-13.2c0.5-7,0.7-14,1.1-21.1C3.5,650.2,5,635.1,7,620.1c2.5-19.8,5.9-39.5,10.1-59
	c12.4-57.8,31.8-113.1,58.2-166c36-72.2,82.9-136.5,140.7-192.8C268.5,151.1,327.5,109,392.9,76c49.3-25,100.8-43.7,154.5-56.5
	c18.8-4.5,37.8-8.3,56.9-11c10.4-1.5,20.9-2.9,31.4-4c9.4-1,18.8-1.9,28.2-2.5c9.1-0.6,18.2-0.9,27.3-1.4c1.2-0.1,2.5-0.4,3.7-0.6
	h34.6c1.4,0.2,2.8,0.6,4.2,0.6c7.7,0.4,15.3,0.8,23,1.2C772,2.5,787.3,4.1,802.5,6c21.4,2.7,42.7,6.4,63.7,11.1
	c59.5,13.1,116.3,33.6,170.5,61.5c69.7,35.9,131.8,82,186.4,138.3c50.9,52.6,92.7,111.6,125.4,177c31.4,62.8,53,128.8,64.6,198
	c4.4,26.5,7.9,53.1,8.6,80.1c0,1.6,0.5,3.1,0.8,4.7v68.1c-0.3,2.2-0.7,4.4-0.8,6.6c-0.2,4.3-0.1,8.6-0.4,12.9
	c-1.3,17.2-3.1,34.4-5.7,51.5c-3.8,25.5-8.8,50.7-15.4,75.6c-34.5,129.7-100,241.2-197,334c-87.2,83.4-189.3,140.8-305.8,172.5
	c-22.4,6.1-45,11-67.9,14.7c-12.6,2-25.3,3.6-38,5.2c-9.4,1.1-18.8,1.9-28.2,2.6c-8.1,0.6-16.3,0.8-24.4,1.3
	C737.7,1421.8,736.5,1422.2,735.2,1422.5 M281.2,1036.5c0.1,0.5,0,0.7,0.1,0.8c1.2,0.8,2.4,1.6,3.6,2.4
	c23.8,14.9,48.6,27.7,74.4,38.7c33.4,14.2,67.8,24.8,103.3,32c18.3,3.7,36.8,6.4,55.5,8.1c13.9,1.3,27.8,2.1,41.7,2.3
	c11.8,0.1,23.7-0.3,35.5-0.5c14.1-0.3,28.1-1.6,42.1-3.2c17-2,33.9-4.7,50.6-8.2c43.2-9.1,84.7-23.3,124.2-43.1
	c69.2-34.6,127.3-82.9,175-143.7c40.2-51.2,70.2-107.9,90.7-169.6c14.5-43.6,23.5-88.3,26.7-134.2c1.3-18.7,1.6-37.4,0.8-56.1
	c0-0.9,0-1.9,0-2.9c18.3-13.3,35.2-28,50.8-44.1c16.9-17.4,39.3-45.6,41.5-52.3c-0.1-0.1-0.3-0.3-0.4-0.2c-0.9,0.3-1.8,0.5-2.7,0.9
	c-24.9,10.6-50.7,18.5-77.4,23.5c-6.4,1.2-12.9,2.2-19.4,3.3c-1.7,0.3-1.7,0.2-4.2-0.6c9.5-6,18.4-12.6,26.6-20
	c8.1-7.3,15.5-15.2,22.3-23.8c6.9-8.7,12.9-17.9,18.1-27.6c6.2-11.5,11.5-24.4,12.5-30.6c-1.8-0.1-2.9,1.1-4.2,1.9
	c-33.3,19-68.6,32.7-106,41.1c-2.9,0.7-5.9,1.1-8.9,1.7c-18.9-19.8-40.6-34.9-65.7-45.3c-24.9-10.3-50.8-14.9-77.7-14.1
	c-27.1,0.8-52.9,7-77.2,18.9c-34.7,17.1-61.9,42.3-81.1,75.9c-24.4,42.7-30.3,88.3-20.5,136.3c-2.1,0.7-4,0.4-5.9,0.2
	c-11.6-1.1-23.2-2.1-34.8-3.4c-20.2-2.3-40.1-6.1-59.8-11c-64.8-16-124.6-43.1-179.3-81.4c-27.3-19.1-52.7-40.6-76-64.5
	c-10.3-10.5-20.2-21.4-29.6-32.8c-1-1.2-1.7-2.7-3.5-3.3c-1,1.7-2,3.3-2.9,5c-20.2,38.4-26.8,79-19.6,121.8
	c6,35.2,21.1,66.2,44.7,93c9.4,10.7,20.1,20.2,31.7,28.5c1,0.7,2.3,1.1,2.7,2.8c-0.8,0.1-1.4,0.2-2,0.2c-2.9-0.2-5.7-0.5-8.6-0.7
	c-14.7-1.3-29-4.6-43-9.4c-9.1-3.1-17.9-7-26.4-11.4c-1-0.5-2-1.7-3.5-0.7c0,2.9-0.1,5.7,0,8.6c0.1,2.9,0.3,5.7,0.6,8.6
	c0.3,2.9,0.6,5.7,0.9,8.6c0.4,2.9,0.7,5.7,1.2,8.5s1.1,5.6,1.7,8.5c0.6,2.8,1.3,5.6,2.1,8.4c0.8,2.8,1.6,5.5,2.5,8.3
	c0.8,2.6,1.7,5.2,2.7,7.7c1,2.7,2.1,5.4,3.2,8s2.3,5.3,3.5,7.9s2.6,5.2,3.9,7.7c1.4,2.5,2.8,5,4.3,7.5s3,4.9,4.6,7.3
	c1.6,2.4,3.2,4.8,4.9,7.1c1.7,2.3,3.5,4.6,5.3,6.9c1.8,2.2,3.7,4.4,5.6,6.6c1.9,2.2,3.8,4.3,5.8,6.4c2,2.1,4.1,4.1,6.1,6.1
	s4.2,3.9,6.4,5.8c2.2,1.9,4.4,3.7,6.7,5.5c2.3,1.8,4.6,3.5,6.9,5.2s4.7,3.3,7.1,4.9c2.3,1.5,4.6,2.9,6.9,4.3c2.5,1.5,5,2.9,7.5,4.2
	s5.1,2.6,7.7,3.9c2.6,1.2,5.2,2.4,7.9,3.5c2.7,1.1,5.3,2.1,8,3.1s5.4,1.9,8.2,2.8c2.7,0.9,5.6,1.5,8.3,2.4c2.6,0.8,5.5,0.9,8.6,2.7
	c-7.2,2.4-13.9,3.5-20.6,4.4c-6.8,0.9-13.7,1.4-20.5,1.9c-6.9,0.5-13.8,0.1-20.6-0.6c-6.8-0.7-13.6-1.5-20.5-2.3
	c-0.5,2,0.5,3.6,1.1,5.2C404.5,890,452.9,935,511.8,951.1c13.8,3.8,27.8,5.9,42.1,6.7c1,0.1,2.3-0.5,3.1,1.1c-1.2,1-2.4,2-3.7,3
	c-28.5,21.6-59.4,38.8-92.8,51.6c-25,9.6-50.7,16.5-77.2,20.6c-12.2,1.9-24.4,3.2-36.7,3.9c-15,0.9-30,1-45.1,0
	c-6.1-0.4-12.1-0.9-18.2-1.3C282.6,1036.4,281.9,1036.5,281.2,1036.5"/>
</svg>
