<?xml version="1.0" encoding="utf-8"?>
<!-- Generator: Adobe Illustrator 27.8.1, SVG Export Plug-In . SVG Version: 6.00 Build 0)  -->
<svg version="1.1" id="圖層_1" xmlns="http://www.w3.org/2000/svg" xmlns:xlink="http://www.w3.org/1999/xlink" x="0px" y="0px"
	 viewBox="0 0 100 100" style="enable-background:new 0 0 100 100;" xml:space="preserve">
<style type="text/css">
	.st0{fill:#00FFC7;}
</style>
<path class="st0" d="M2.2,49.9c0.1-26.3,21.2-47.3,47-47.7c27-0.4,48.3,21.2,48.6,47.1c0.4,27-21.1,48-46.7,48.6
	C23.8,98.4,2.1,76.4,2.2,49.9 M7,57.5c0.1-0.2,0.1-0.3,0.2-0.5c1.4-2.5,2.8-4.9,4.1-7.4c0.3-0.5,0.4-1.1,0.5-1.7
	c0.2-1.1,0.2-2.3,0.4-3.4c0.6-4.8,2.2-9.2,4.6-13.4c2.9-5.2,6.9-9.5,11.8-12.8c0.2-0.2,0.5-0.4,0.6-0.7c0.9-1.7,1.9-3.3,2.8-5
	c0.6-1,1.2-2.1,1.8-3.2c-0.2,0.1-0.3,0.1-0.4,0.1c-3.9,1.6-7.5,3.7-10.8,6.4c-4.9,4-8.8,8.7-11.7,14.4c-2.2,4.4-3.6,9-4.3,13.9
	C6.2,47.8,6.2,51.4,6.6,55C6.6,55.8,6.9,56.7,7,57.5c0,0.2,0,0.4,0,0.6c0.7,3.6,1.8,7.1,3.4,10.5c2.4,5.1,5.7,9.6,9.9,13.5
	c7.3,6.7,15.9,10.5,25.7,11.5c6.4,0.6,12.7-0.2,18.7-2.4c7.6-2.7,14-7.3,19.2-13.5c5.2-6.4,8.4-13.6,9.5-21.8
	C94,51.3,93.9,46.6,93,42c-1.2-6.3-3.6-12.2-7.4-17.4c-5.2-7.2-11.9-12.4-20.2-15.5c-3.6-1.4-7.3-2.3-11.2-2.6
	C48.6,6,43.1,6.4,37.7,8c-1.1,0.3-2.2,0.7-3.5,1.1c2.2,1.2,4.3,2.4,6.4,3.6c0.1,0.1,0.4,0,0.5,0c2.1-0.3,4.1-0.7,6.2-0.9
	c2.9-0.3,5.8-0.1,8.7,0.4c7.6,1.2,14.3,4.5,20,9.7c5.6,5.2,9.3,11.5,11.2,18.9c0.2,0.7,0.3,1.4,0.5,2.2c-16.2-9-32.2-17.9-48.4-26.8
	c5,15.5,9.9,30.8,14.8,46.2c11.3-2.4,22.5-4.9,33.8-7.3c-0.2,1-0.3,1.9-0.5,2.8c-0.1,0.5-0.3,0.7-0.8,0.7c-4.3,0.9-8.7,1.9-13,2.8
	c-1.2,0.3-2.4,0.5-3.7,0.8c0.5,1.5,1,2.9,1.5,4.3c1.4,3.8,2.7,7.5,4,11.3c0.1,0.2,0.1,0.5,0,0.6c-0.7,0.7-1.5,1.3-2.4,2
	c-2.1-5.9-4.2-11.8-6.3-17.6c-5,1.1-9.9,2.2-14.9,3.2c-1.8-5.6-3.6-11.2-5.4-16.8c-10.9,2.7-21.8,5.4-32.8,8.1
	C30.6,66.8,47.3,76.2,64,85.5c-0.1,0.1-0.1,0.1-0.1,0.1c-3.3,1.3-6.8,2.1-10.3,2.4c-3,0.3-6,0.2-9-0.2c-7.1-1-13.5-3.9-19-8.5
	c-5.7-4.8-9.7-10.7-12-17.8c-0.1-0.2-0.2-0.5-0.4-0.6C11,59.8,9,58.7,7,57.5 M12.2,54.5c11.2-2.8,22.3-5.5,33.4-8.3
	c-3.5-10.9-7-21.7-10.5-32.7C27.4,27.2,19.9,40.8,12.2,54.5"/>
</svg>
