<?xml version="1.0" encoding="utf-8"?>
<!-- Generator: Adobe Illustrator 28.0.0, SVG Export Plug-In . SVG Version: 6.00 Build 0)  -->
<svg version="1.1" id="圖層_1" xmlns="http://www.w3.org/2000/svg" xmlns:xlink="http://www.w3.org/1999/xlink" x="0px" y="0px"
	 viewBox="0 0 555.72 730.67" style="enable-background:new 0 0 555.72 730.67;" xml:space="preserve">
<style type="text/css">
	.st0{fill-rule:evenodd;clip-rule:evenodd;fill:#00FED3;}
</style>
<g>
	<path class="st0" d="M492.11,58.76L492.11,58.76c4.28,4.28,4.28,11.29,0,15.57l-43.46,43.46c-4.28,4.28-11.29,4.28-15.57,0l0,0
		c-4.28-4.28-4.28-11.29,0-15.57l43.46-43.46C480.82,54.48,487.83,54.48,492.11,58.76L492.11,58.76z M496,284.5L496,284.5
		c-4.28,4.28-11.29,4.28-15.57,0l-43.46-43.46c-4.28-4.28-4.28-11.29,0-15.57l0,0c4.28-4.28,11.29-4.28,15.57,0L496,268.93
		C500.28,273.21,500.28,280.22,496,284.5L496,284.5z M266.37,62.65L266.37,62.65c4.28-4.28,11.29-4.28,15.57,0l43.46,43.46
		c4.28,4.28,4.28,11.29,0,15.57l0,0c-4.28,4.28-11.29,4.28-15.57,0l-43.46-43.46C262.09,73.94,262.09,66.93,266.37,62.65
		L266.37,62.65z M337.21,20.1L337.21,20.1c5.85-1.57,11.92,1.94,13.48,7.78l15.91,59.37c1.57,5.85-1.94,11.91-7.78,13.48l0,0
		c-5.85,1.57-11.92-1.94-13.48-7.78l-15.91-59.37C327.86,27.74,331.36,21.67,337.21,20.1L337.21,20.1z M419.84,18.68
		c-5.85-1.57-11.92,1.94-13.48,7.78l-15.91,59.37c-1.57,5.85,1.94,11.92,7.78,13.48l0,0c5.85,1.57,11.91-1.94,13.48-7.78
		l15.91-59.37C429.19,26.31,425.69,20.25,419.84,18.68L419.84,18.68L419.84,18.68z M536.08,212.23L536.08,212.23
		c-1.57,5.85-7.63,9.35-13.48,7.78l-59.37-15.91c-5.85-1.57-9.35-7.63-7.78-13.48l0,0c1.57-5.85,7.63-9.35,13.48-7.78l59.37,15.91
		C534.15,200.31,537.65,206.38,536.08,212.23L536.08,212.23z M534.66,129.6c-1.57-5.85-7.63-9.35-13.48-7.78l-59.37,15.91
		c-5.85,1.57-9.35,7.63-7.78,13.48l0,0c1.57,5.85,7.63,9.35,13.48,7.78l59.37-15.91C532.72,141.52,536.22,135.45,534.66,129.6
		L534.66,129.6z"/>
	<path class="st0" d="M67.24,262.52c14.21-20.39,49.36-14.83,54.98,11.69c1.62,7.66-6.68,83.07-7.86,94.13
		c-0.45,4.25-2.08,11.39,0.6,15.65c3.65,5.81,10.66,6.61,15.06,3.97c5.06-3.04,202.11-201.54,219.17-218.6
		c11.28-11.28,18.52-20.89,32.21-20.7c25.71,0.35,41.69,30.23,23.2,50.83c-18.54,20.67-42.31,42.39-62.27,62.35l-94.18,94.16
		c-5.57,5.52-9.58,9.42-7.14,15.32c2.87,6.92,9.49,9.39,14.39,7.42c5.65-2.28,54.02-52.51,62.63-61.13
		c12.26-12.28,18.02-17.53,31.51-16.02c11.71,1.31,22.5,10.5,26.34,22.32c3.46,10.65,0.37,21.04-9.83,31.33
		c-18.2,18.38-47.09,45.67-63.07,63c-10.5,11.39,3.56,26.77,15.7,15.78c14.75-13.36,47.34-52.97,62.7-56.81
		c23.28-5.82,45.95,20.38,34.97,42.31c-7.46,14.91-56.08,53.71-58.36,63.01c-1.33,5.42,2.2,11.83,8.57,13.67
		c17.82,5.16,46.94-59.73,77.84-40.88c13.26,7.45,17.84,21.24,16.56,30.92c-1.66,12.63-12.96,21.2-23.06,31.31l-94.16,94.15
		c-47.12,47.12-72.16,66.39-126.17,73.35C134.01,695.79,60.7,630.02,45.82,545.52c-7.12-40.43-2.79-54.18-0.19-94.14
		c2.4-36.93,8.49-86.92,11.96-126C58.61,313.8,60.47,272.23,67.24,262.52L67.24,262.52z M139.15,348.09
		c-0.2-1.58-0.14-1.04-0.2-2.64l4.51-49c0.39-5.17,1.68-12,1.72-17.06c0.28-32.89-29.32-56.17-64.77-50.12
		c-20.2,3.45-34.97,18.9-39.06,38.25c-1.29,6.1-1.46,11.07-2.18,17.07c-0.74,6.12-1.12,11.31-1.72,17.06L20.53,479.57
		c-1.96,15.95-0.53,43.15,1.73,59.29c11.37,81.41,62.77,146.27,142.66,165.22c22.13,5.25,46.84,4.86,68.21,1.13
		c62.01-10.83,93.61-45.21,135.92-87.5c22.49-22.48,44.97-44.97,67.46-67.46c10.76-10.76,24.27-22.99,34.02-34.25
		c17.37-20.06,16.71-48.37-0.5-68.14c-12.7-14.59-20.37-13.48-33.07-18.69c0.98-4.05,2.93-8.01,3.76-11.9
		c4.27-19.82-6.02-42.07-23.78-54.09c-11.92-8.06-16.7-6.7-22.34-9.25c6.47-13.54,6.78-28.7,0.17-42.66
		c-10.37-21.89-23.58-25.05-38.68-31.82c17.91-17.3,35.49-35.41,53.12-53.05c18.8-18.8,28.36-31.69,25.87-51.55
		c-2.36-18.78-15.2-37.27-35.89-45.42c-16.08-6.33-35.09-4.82-51.71,10.29c-17.59,15.98-35.57,35.45-52.57,52.45
		c-17.3,17.3-34.6,34.6-51.9,51.9C209.03,278.07,171.59,313.09,139.15,348.09z"/>
</g>
</svg>
