<?xml version="1.0" encoding="utf-8"?>
<!-- Generator: Adobe Illustrator 27.8.1, SVG Export Plug-In . SVG Version: 6.00 Build 0)  -->
<svg version="1.1" id="圖層_1" xmlns="http://www.w3.org/2000/svg" xmlns:xlink="http://www.w3.org/1999/xlink" x="0px" y="0px"
	 viewBox="0 0 48 48" style="enable-background:new 0 0 48 48;" xml:space="preserve">
<style type="text/css">
	.st0{fill:#00FFC7;}
	.st1{fill:none;}
</style>
<path class="st0" d="M28,48h-8c-0.5,0-0.9-0.3-1-0.8l-0.9-4.4c-1.2-0.4-2.1-0.9-3.1-1.6l-3.4,2.6c-0.4,0.3-1,0.3-1.3-0.1l-6-6
	c-0.4-0.4-0.4-0.9-0.1-1.3l2.6-3.5c-0.6-1-1.1-1.9-1.6-3.1L0.8,29C0.3,28.9,0,28.5,0,28v-8c0-0.5,0.3-0.9,0.8-1l4.4-0.9
	c0.3-0.9,0.8-1.7,1.2-2.4c0.1-0.2,0.2-0.4,0.4-0.6l-2.6-3.5c-0.3-0.4-0.3-1,0.1-1.3l6-6c0.4-0.4,0.9-0.4,1.3-0.1l3.5,2.6
	c0.1,0,0.1-0.1,0.2-0.1c0.9-0.6,1.8-1.1,2.9-1.5L19,0.8C19.1,0.3,19.5,0,20,0h8c0.5,0,0.9,0.3,1,0.8l0.9,4.4c1.1,0.4,2,0.9,2.9,1.5
	c0.1,0,0.1,0.1,0.2,0.1l3.5-2.6c0.4-0.3,1-0.3,1.3,0.1l6,6c0.4,0.4,0.4,0.9,0.1,1.3l-2.6,3.5c0,0.1,0.1,0.1,0.1,0.2
	c0.6,0.9,1.1,1.8,1.5,2.9l4.4,0.9c0.5,0.1,0.8,0.5,0.8,1v8c0,0.5-0.3,0.9-0.8,1l-4.4,0.9c-0.4,1.1-0.9,2-1.5,2.9
	c0,0.1-0.1,0.1-0.1,0.2l2.6,3.5c0.3,0.4,0.3,1-0.1,1.3l-6,6c-0.4,0.4-0.9,0.4-1.3,0.1l-3.5-2.6c-0.1,0-0.1,0.1-0.2,0.1
	c-0.9,0.6-1.8,1.1-2.9,1.5L29,47.2C28.9,47.7,28.5,48,28,48z M20.8,46h6.4l0.8-4.2c0.1-0.4,0.4-0.7,0.7-0.8c1.1-0.3,2-0.8,3-1.4
	c0.3-0.2,0.5-0.3,0.8-0.5c0.3-0.2,0.8-0.2,1.1,0.1l3.3,2.5l4.8-4.8l-2.5-3.3c-0.2-0.3-0.3-0.8-0.1-1.1c0.2-0.3,0.3-0.5,0.5-0.8
	c0.6-1,1.1-1.9,1.4-3c0.1-0.4,0.4-0.6,0.8-0.7l4.2-0.8v-6.4L41.8,20c-0.4-0.1-0.7-0.4-0.8-0.7c-0.3-1.1-0.8-2-1.4-3
	c-0.2-0.3-0.3-0.5-0.5-0.8c-0.2-0.3-0.2-0.8,0.1-1.1l2.5-3.3l-4.8-4.8l-3.3,2.5c-0.3,0.2-0.8,0.3-1.1,0.1c-0.3-0.2-0.5-0.3-0.8-0.5
	c-1-0.6-1.9-1.1-3-1.4c-0.4-0.1-0.6-0.4-0.7-0.8L27.2,2h-6.4L20,6.2c-0.1,0.4-0.4,0.7-0.7,0.8c-1.1,0.3-2,0.8-3,1.4
	c-0.3,0.2-0.5,0.3-0.8,0.5c-0.3,0.2-0.8,0.2-1.1-0.1l-3.3-2.5l-4.8,4.8l2.5,3.3c0.2,0.3,0.3,0.7,0.1,1.1c-0.2,0.4-0.5,0.8-0.7,1.2
	c-0.5,0.9-1,1.7-1.2,2.6c-0.1,0.4-0.4,0.6-0.8,0.7L2,20.8v6.4L6.2,28c0.4,0.1,0.6,0.3,0.8,0.7c0.4,1.2,0.9,2.2,1.6,3.2l0.3,0.6
	c0.2,0.3,0.2,0.8-0.1,1.1l-2.5,3.3l4.8,4.8l3.3-2.5c0.3-0.3,0.8-0.3,1.2,0c1.3,0.9,2.3,1.5,3.7,1.9c0.4,0.1,0.6,0.4,0.7,0.8L20.8,46
	z M47,28L47,28L47,28z"/>
<path class="st0" d="M24,33.8c-5.4,0-9.8-4.4-9.8-9.8s4.4-9.8,9.8-9.8s9.8,4.4,9.8,9.8S29.4,33.8,24,33.8z M24,16.2
	c-4.3,0-7.8,3.5-7.8,7.8s3.5,7.8,7.8,7.8s7.8-3.5,7.8-7.8S28.3,16.2,24,16.2z"/>
<rect class="st1" width="48" height="48"/>
</svg>
