<?xml version="1.0" encoding="utf-8"?>
<!-- Generator: Adobe Illustrator 27.8.1, SVG Export Plug-In . SVG Version: 6.00 Build 0)  -->
<svg version="1.1" id="圖層_1" xmlns="http://www.w3.org/2000/svg" xmlns:xlink="http://www.w3.org/1999/xlink" x="0px" y="0px"
	 viewBox="0 0 48 48" style="enable-background:new 0 0 48 48;" xml:space="preserve">
<style type="text/css">
	.st0{fill:none;stroke:#00FFC7;stroke-width:2;stroke-linecap:round;stroke-linejoin:round;}
	.st1{fill:none;}
</style>
<circle class="st0" cx="24" cy="24" r="17"/>
<path class="st0" d="M24,7c-8,10-8,24,0,34"/>
<path class="st0" d="M24,7c8,10,8,24,0,34"/>
<path class="st0" d="M11,13c0,4,26,4,26,0"/>
<line class="st0" x1="7" y1="24" x2="41" y2="24"/>
<path class="st0" d="M11,35c0-4,26-4,26,0"/>
<path class="st0" d="M37,5c0.6,0.4,1.2,0.8,1.7,1.3"/>
<path class="st0" d="M43,11.1c2.5,3.7,4,8.1,4,12.9c0,12.7-10.3,23-23,23C11.3,47,1,36.7,1,24C1,11.3,11.3,1,24,1
	c2.4,0,4.7,0.4,6.9,1"/>
<rect class="st1" width="48" height="48"/>
</svg>
