<?xml version="1.0" encoding="utf-8"?>
<!-- Generator: Adobe Illustrator 28.0.0, SVG Export Plug-In . SVG Version: 6.00 Build 0)  -->
<svg version="1.1" id="圖層_1" xmlns="http://www.w3.org/2000/svg" xmlns:xlink="http://www.w3.org/1999/xlink" x="0px" y="0px"
	 viewBox="0 0 555.7 691" style="enable-background:new 0 0 555.7 691;" xml:space="preserve">
<style type="text/css">
	.st0{fill-rule:evenodd;clip-rule:evenodd;fill:#FFFFFF;}
</style>
<g>
	<path class="st0" d="M70.5,170.5c16.1-23.1,55.8-16.8,62.2,13.2c1.8,8.7-7.6,93.9-8.9,106.4c-0.5,4.8-2.4,12.9,0.7,17.7
		c4.1,6.6,12.1,7.5,17,4.5c5.7-3.4,228.5-227.9,247.8-247.1c12.8-12.8,20.9-23.6,36.4-23.4c29.1,0.4,47.1,34.2,26.2,57.5
		c-21,23.4-47.8,47.9-70.4,70.5L275,276.1c-6.3,6.2-10.8,10.7-8.1,17.3c3.2,7.8,10.7,10.6,16.3,8.4c6.4-2.6,61.1-59.4,70.8-69.1
		c13.9-13.9,20.4-19.8,35.6-18.1c13.2,1.5,25.4,11.9,29.8,25.2c3.9,12,0.4,23.8-11.1,35.4c-20.6,20.8-53.2,51.6-71.3,71.2
		c-11.9,12.9,4,30.3,17.8,17.8c16.7-15.1,53.5-59.9,70.9-64.2c26.3-6.6,52,23,39.5,47.8c-8.4,16.9-63.4,60.7-66,71.2
		c-1.5,6.1,2.5,13.4,9.7,15.5c20.1,5.8,53.1-67.5,88-46.2c15,8.4,20.2,24,18.7,35c-1.9,14.3-14.7,24-26.1,35.4L383.1,565.2
		c-53.3,53.3-81.6,75.1-142.6,82.9C146,660.3,63.1,585.9,46.2,490.4c-8-45.7-3.2-61.3-0.2-106.4c2.7-41.8,9.6-98.3,13.5-142.5
		C60.7,228.4,62.8,181.4,70.5,170.5L70.5,170.5z M151.8,267.2c-0.2-1.8-0.2-1.2-0.2-3l5.1-55.4c0.4-5.8,1.9-13.6,1.9-19.3
		c0.3-37.2-33.1-63.5-73.2-56.7c-22.8,3.9-39.5,21.4-44.2,43.2c-1.5,6.9-1.7,12.5-2.5,19.3c-0.8,6.9-1.3,12.8-1.9,19.3L17.7,415.8
		c-2.2,18-0.6,48.8,2,67c12.9,92,71,165.4,161.3,186.8c25,5.9,53,5.5,77.1,1.3c70.1-12.2,105.8-51.1,153.7-98.9
		c25.4-25.4,50.8-50.8,76.3-76.3c12.2-12.2,27.4-26,38.5-38.7c19.6-22.7,18.9-54.7-0.6-77c-14.4-16.5-23-15.2-37.4-21.1
		c1.1-4.6,3.3-9.1,4.3-13.5c4.8-22.4-6.8-47.6-26.9-61.2c-13.5-9.1-18.9-7.6-25.3-10.5c7.3-15.3,7.7-32.4,0.2-48.2
		c-11.7-24.7-26.7-28.3-43.7-36c20.2-19.6,40.1-40,60.1-60c21.3-21.3,32.1-35.8,29.2-58.3c-2.7-21.2-17.2-42.1-40.6-51.4
		c-18.2-7.2-39.7-5.4-58.5,11.6c-19.9,18.1-40.2,40.1-59.4,59.3c-19.6,19.6-39.1,39.1-58.7,58.7C230.8,188,188.4,227.6,151.8,267.2z
		"/>
</g>
</svg>
