<?xml version="1.0" encoding="utf-8"?>
<!-- Generator: Adobe Illustrator 27.8.1, SVG Export Plug-In . SVG Version: 6.00 Build 0)  -->
<svg version="1.1" id="圖層_1" xmlns="http://www.w3.org/2000/svg" xmlns:xlink="http://www.w3.org/1999/xlink" x="0px" y="0px"
	 viewBox="0 0 30 30" style="enable-background:new 0 0 30 30;" xml:space="preserve">
<style type="text/css">
	.st0{fill:#00FFC7;}
</style>
<path class="st0" d="M2.6,28.5l-1.1-1.1c-0.3-0.3-0.3-0.9,0-1.2L26.2,1.5c0.3-0.3,0.9-0.3,1.2,0l1.1,1.1c0.3,0.3,0.3,0.9,0,1.2
	L3.8,28.5C3.4,28.9,2.9,28.9,2.6,28.5z"/>
<path class="st0" d="M28.5,27.4l-1.1,1.1c-0.3,0.3-0.9,0.3-1.2,0L1.5,3.8c-0.3-0.3-0.3-0.9,0-1.2l1.1-1.1c0.3-0.3,0.9-0.3,1.2,0
	l24.8,24.8C28.9,26.6,28.9,27.1,28.5,27.4z"/>
</svg>
